<?xml version="1.0" encoding="UTF-8"?>
<svg width="216px" height="74px" viewBox="0 0 216 74" version="1.1" xmlns="http://www.w3.org/2000/svg" xmlns:xlink="http://www.w3.org/1999/xlink">
    <!-- Generator: Sketch 52.3 (67297) - http://www.bohemiancoding.com/sketch -->
    <title>Logo</title>
    <desc>Created with Sketch.</desc>
    <g id="Logo" stroke="none" stroke-width="1" fill="none" fill-rule="evenodd">
        <g id="black-labrador-retriever" transform="translate(6.000000, 10.000000)">
            <g id="Group">
                <path d="M36.6654545,43.8942373 L36.6654545,50.6250847 C36.5196471,54.2344218 33.5345901,57.0857782 29.9018182,57.0857782 C26.2690463,57.0857782 23.2839893,54.2344218 23.1381818,50.6250847 L23.1381818,43.8942373" id="Path" stroke="#000000" fill="#F59AAE"></path>
                <path d="M29.8963636,50.619661 L29.8963636,42.2562712" id="Path" stroke="#000000" stroke-linecap="round"></path>
                <path d="M45.8181818,38.7633898 L49.0090909,40.2277966 C51.389832,41.3184375 54.1652778,41.1282844 56.3730865,39.7232699 C58.5808951,38.3182554 59.9170203,35.8918697 59.9181818,33.2854237 L59.9181818,24.3254237 C59.9166085,21.8117789 59.0955678,19.3663788 57.5781818,17.3559322 L46.1781818,2.24 C44.9988034,0.676120166 42.8627106,0.175946672 41.1054545,1.05220339 C40.3682074,1.41774867 39.5294358,1.5284441 38.7218182,1.36677966 L36.3763636,0.900338983 C32.1669459,0.0651419903 27.8330541,0.0651419903 23.6236364,0.900338983 L21.2781818,1.36677966 C20.4705642,1.5284441 19.6317926,1.41774867 18.8945455,1.05220339 C17.1372894,0.175946672 15.0011966,0.676120166 13.8218182,2.24 L2.42181818,17.3559322 C0.906378976,19.3670571 0.0872722684,21.8123971 0.0872727273,24.3254237 L0.0872727273,34.0881356 C0.0864340208,36.6121009 1.33807387,38.9739344 3.43228731,40.400149 C5.52650074,41.8263635 8.19355317,42.1332628 10.56,41.220339 L14.0563636,39.8698305" id="Path" fill="#333333"></path>
                <path d="M1.68545455,38.7308475 C1.68545455,38.5247458 1.64727273,38.3186441 1.64727273,38.1016949 L1.64727273,28.3389831 C1.64923876,25.8312695 2.46832519,23.3916989 3.98181818,21.3857627 L15.3818182,6.26983051 C16.5615959,4.71069871 18.6914049,4.20918012 20.4490909,5.07661017 C21.1859542,5.44319488 22.0244797,5.5557658 22.8327273,5.39661017 L25.1781818,4.93016949 C29.3888918,4.08951523 33.7256537,4.08951523 37.9363636,4.93016949 L40.2818182,5.39661017 C41.0900658,5.5557658 41.9285912,5.44319488 42.6654545,5.07661017 C44.4231405,4.20918012 46.5529496,4.71069871 47.7327273,6.26983051 L59.1327273,21.3857627 C59.34,21.6569492 59.5363636,21.9281356 59.7163636,22.2318644 C59.3917435,20.4625606 58.6599429,18.7918985 57.5781818,17.3505085 L46.1781818,2.23457627 C44.9988034,0.670696437 42.8627106,0.170522943 41.1054545,1.04677966 C40.3682074,1.41232494 39.5294358,1.52302037 38.7218182,1.36135593 L36.3763636,0.894915254 C32.1669459,0.0597182615 27.8330541,0.0597182615 23.6236364,0.894915254 L21.2781818,1.36135593 C20.4705642,1.52302037 19.6317926,1.41232494 18.8945455,1.04677966 C17.1372894,0.170522943 15.0011966,0.670696437 13.8218182,2.23457627 L2.42181818,17.3559322 C0.906378976,19.3670571 0.0872722684,21.8123971 0.0872727273,24.3254237 L0.0872727273,34.0881356 C0.0885525965,35.7689367 0.650645432,37.4018141 1.68545455,38.7308475 Z" id="Path" fill="#565656"></path>
                <path d="M47.9290909,17.3559322 C50.1268358,21.548396 48.6469448,26.7177998 44.5581818,29.1308475 L45.9654545,33.1389831 L45.9654545,40.3091525 C46.0412858,43.192509 44.5376292,45.8897037 42.0382581,47.3535892 C39.538887,48.8174746 36.4374767,48.8174746 33.9381055,47.3535892 C31.4387344,45.8897037 29.9350779,43.192509 30.0109091,40.3091525 C30.0867403,43.192509 28.5830838,45.8897037 26.0837126,47.3535892 C23.5843415,48.8174746 20.4829312,48.8174746 17.9835601,47.3535892 C15.484189,45.8897037 13.9805324,43.192509 14.0563636,40.3091525 L14.0563636,33.1389831 L15.4581818,29.1416949 C11.3642716,26.7281298 9.87779685,21.5560519 12.0709091,17.3559322" id="Path" fill="#333333"></path>
                <ellipse id="Oval" fill="#010101" transform="translate(20.032439, 21.442408) rotate(-9.220000) translate(-20.032439, -21.442408) " cx="20.0324391" cy="21.4424084" rx="2.49236674" ry="2.47900664"></ellipse>
                <ellipse id="Oval" fill="#010101" transform="translate(39.239345, 21.557803) rotate(-67.557247) translate(-39.239345, -21.557803) " cx="39.2393455" cy="21.5578034" rx="2.46926406" ry="2.47919624"></ellipse>
                <path d="M45.8181818,38.7633898 L49.0090909,40.2277966 C51.389832,41.3184375 54.1652778,41.1282844 56.3730865,39.7232699 C58.5808951,38.3182554 59.9170203,35.8918697 59.9181818,33.2854237 L59.9181818,24.3254237 C59.9166085,21.8117789 59.0955678,19.3663788 57.5781818,17.3559322 L46.1781818,2.24 C44.9988034,0.676120166 42.8627106,0.175946672 41.1054545,1.05220339 C40.3682074,1.41774867 39.5294358,1.5284441 38.7218182,1.36677966 L36.3763636,0.900338983 C32.1669459,0.0651419903 27.8330541,0.0651419903 23.6236364,0.900338983 L21.2781818,1.36677966 C20.4705642,1.5284441 19.6317926,1.41774867 18.8945455,1.05220339 C17.1372894,0.175946672 15.0011966,0.676120166 13.8218182,2.24 L2.42181818,17.3559322 C0.906378976,19.3670571 0.0872722684,21.8123971 0.0872727273,24.3254237 L0.0872727273,34.0881356 C0.0864340208,36.6121009 1.33807387,38.9739344 3.43228731,40.400149 C5.52650074,41.8263635 8.19355317,42.1332628 10.56,41.220339 L14.0563636,39.8698305" id="Path" stroke="#010101" stroke-width="2" stroke-linejoin="round"></path>
                <path d="M19.8381818,28.6101695 C20.0855351,27.8881433 19.7952708,27.0921715 19.14,26.6955932 L17.5036364,25.7138983 C15.9890384,24.8251005 15.0612766,23.2050146 15.0654545,21.4562712 C15.0698572,19.8871263 14.1949131,18.4461872 12.7963636,17.719322 L12.0709091,17.3559322 C9.89143852,21.5439487 11.3657939,26.6952351 15.4363636,29.1145763 L14.0345455,33.1118644 L14.0345455,40.2820339 C14.0367446,43.1127802 15.5563898,45.7276781 18.0218182,47.1430508 L18.0218182,33.7789831 L19.8381818,28.6101695 Z" id="Path" fill="#565656"></path>
                <path d="M47.9290909,17.3559322 C49.9269848,21.1649581 48.9035398,25.8494015 45.4963636,28.4908475 C44.9511274,28.914417 44.7327389,29.6331988 44.9509091,30.2861017 L45.9545455,33.1389831 L45.9545455,40.3091525 C46.0303767,43.192509 44.5267201,45.8897037 42.027349,47.3535892 C39.5279779,48.8174746 36.4265676,48.8174746 33.9271965,47.3535892 C31.4278253,45.8897037 29.9241688,43.192509 30,40.3091525 C30.0758312,43.192509 28.5721747,45.8897037 26.0728035,47.3535892 C23.5734324,48.8174746 20.4720221,48.8174746 17.972651,47.3535892 C15.4732799,45.8897037 13.9696233,43.192509 14.0454545,40.3091525 L14.0454545,33.1389831 L15.0436364,30.3023729 C15.2618065,29.64947 15.0434181,28.9306882 14.4981818,28.5071186 C11.094304,25.8561167 10.0741162,21.1692496 12.0709091,17.3559322" id="Path" stroke="#010101" stroke-linecap="round" stroke-linejoin="round"></path>
                <path d="M29.9018182,42.2562712 L25.4290909,37.8142373 C24.224106,36.6160602 24.224106,34.6734313 25.4290909,33.4752543 C26.6340758,32.2770772 28.5877424,32.2770772 29.7927273,33.4752542 L29.9236364,33.6054237 L30.0545455,33.4752542 C31.2595304,32.2770772 33.2131969,32.2770772 34.4181818,33.4752543 C35.6231667,34.6734313 35.6231667,36.6160602 34.4181818,37.8142373 L29.9018182,42.2562712 Z" id="Path" fill="#010101"></path>
            </g>
            <circle id="Oval" fill="#000000" cx="21" cy="38" r="1"></circle>
            <circle id="Oval" fill="#000000" cx="24" cy="42" r="1"></circle>
            <circle id="Oval" fill="#000000" cx="19" cy="42" r="1"></circle>
            <circle id="Oval" fill="#000000" cx="39" cy="38" r="1"></circle>
            <circle id="Oval" fill="#000000" cx="36" cy="42" r="1"></circle>
            <circle id="Oval" fill="#000000" cx="41" cy="42" r="1"></circle>
        </g>
        <path d="M79.368,53 C77.448,53 75.96,51.272 75.96,48.824 C75.96,45.512 77.688,42.536 81.768,37.064 C85.464,32.12 85.848,32.6 85.848,31.64 C85.8,30.728 85.752,21.896 85.56,19.976 C84.696,19.976 86.088,19.928 81.096,20.36 C80.808,20.408 80.568,20.408 80.376,20.408 C79.848,20.408 79.608,20.264 79.464,19.928 C79.128,19.256 80.136,18.68 80.712,18.632 C86.568,18.392 90.648,17.336 92.28,17.336 C92.424,17.336 92.616,17.336 92.712,17.384 C93.384,17.576 91.752,18.968 90.408,19.208 C89.688,19.352 89.064,19.448 87.576,19.688 C87.48,19.832 87.432,20.312 87.432,21.128 C87.432,23.144 87.672,26.936 87.672,30.344 C88.632,29.768 89.064,29.288 90.552,29.192 C90.984,29.192 91.032,29.432 91.032,29.576 C90.936,29.864 89.784,31.016 89.304,31.4 C87.624,32.6 87.624,32.792 87.624,33.176 C87.288,37.736 86.76,44.936 84.408,49.016 C82.776,51.848 80.904,53 79.368,53 Z M115.320035,37.7595679 C115.320012,37.7357651 115.32,37.711909 115.32,37.688 C115.32,29.672 116.808,15.992 120.216,14.072 C120.6,13.88 120.936,13.784 121.224,13.784 C122.328,13.784 123,15.08 123,17.384 C123,20.648 121.656,25.928 118.2,32.648 C117.96,33.128 117.72,33.656 117.336,33.992 C117.192,34.136 117,35.672 117,37.64 C117,40.232 117.336,43.592 118.68,45.56 C118.968,45.992 119.304,46.184 119.64,46.184 C121.176,46.184 122.952,41.624 124.488,38.024 C124.560813,37.8419676 124.661239,37.701355 124.778806,37.5969261 C125.093689,35.4046747 125.606875,33.6593757 125.64,33.56 C126.024,33.368 126.264,33.224 126.456,33.224 C126.696,33.224 126.888,33.464 127.224,33.992 C127.224,34.136 127.224,34.184 127.176,34.28 C126.696,35.096 126.072,38.168 126.072,40.712 C126.072,41.576 126.168,42.344 126.312,42.968 C126.504,43.784 126.792,44.36 127.272,44.36 C128.232,44.36 130.008,42.392 133.848,36.824 C133.992,36.632 134.136,36.44 134.28,36.2 C134.664,35.672 135.096,35.48 135.432,35.48 C135.864,35.48 136.2,35.816 136.296,36.296 C136.344,36.584 136.392,37.16 136.392,37.832 C136.392,39.512 136.248,42.056 136.248,43.544 C136.296,43.544 136.344,43.592 136.392,43.592 C136.584,43.592 136.728,43.4 136.824,43.304 C144.312,37.784 144.84,37.4 145.032,37.4 C145.704,37.4 146.136,37.832 146.136,38.36 C146.136,38.6 145.992,38.888 145.752,39.08 C143.496,40.712 140.568,42.776 136.68,45.752 C135.768,46.424 136.152,45.992 135.672,49.88 C134.04,63.224 127.848,68.6 123.624,68.6 C122.04,68.6 120.696,67.832 120.024,66.44 C119.592,65.624 119.448,64.76 119.448,63.848 C119.448,58.664 125.544,52.664 129.576,49.208 C130.872,48.104 133.704,45.752 134.568,45.032 C134.664,43.016 134.856,41 134.76,38.936 C133.848,39.176 130.248,46.28 127.32,46.28 C126.648,46.28 125.976,45.896 125.4,44.936 C124.910474,44.1317794 124.675663,43.098316 124.584237,41.9840491 C123.284467,44.8827305 122.895308,45.4716737 122.424,46.088 C121.368,47.48 120.36,48.104 119.448,48.104 C117.624,48.104 116.232,45.656 115.608,42.584 C115.553048,42.2955033 115.50596,41.9480281 115.466736,41.5483265 C114.009809,44.8259933 113.606036,45.4419528 113.112,46.088 C112.056,47.48 111.048,48.104 110.136,48.104 C108.312,48.104 106.92,45.656 106.296,42.584 C106.19342,42.0454539 106.118242,41.3013864 106.070468,40.3957192 C102.779873,44.0272696 98.101866,48.392 93.864,48.392 C91.56,48.392 90.696,46.856 90.696,44.744 C90.696,41.192 93.24,36.152 96.168,34.184 C96.984,33.608 97.752,33.416 98.424,33.416 C99.912,33.416 100.872,34.52 100.632,35.432 L100.632,35.576 C100.872,36.968 98.808,39.704 95.976,40.664 C95.256,40.952 93.72,41.288 92.952,41.48 C92.472,42.728 92.232,43.784 92.232,44.552 C92.232,45.944 92.904,46.568 94.056,46.568 C95.496,46.568 97.608,45.512 99.96,43.64 C104.240557,40.1928256 105.202739,38.3002053 106.008008,37.65543 C106.01203,29.6350012 107.500611,15.9894021 110.904,14.072 C111.288,13.88 111.624,13.784 111.912,13.784 C113.016,13.784 113.688,15.08 113.688,17.384 C113.688,20.648 112.344,25.928 108.888,32.648 C108.648,33.128 108.408,33.656 108.024,33.992 C107.88,34.136 107.688,35.672 107.688,37.64 C107.688,40.232 108.024,43.592 109.368,45.56 C109.656,45.992 109.992,46.184 110.328,46.184 C111.864,46.184 113.64,41.624 115.176,38.024 C115.216187,37.9235322 115.264786,37.8356816 115.320035,37.7595679 Z M79.272,51.416 C78.936,51.416 78.552,51.272 78.216,50.936 C77.736,50.456 77.496,49.736 77.496,48.968 C77.496,44.264 85.176,35.48 85.512,35.144 C85.56,35.144 85.608,35.192 85.656,35.192 C85.272,39.944 84.456,47.576 80.856,50.648 C80.328,51.128 79.8,51.416 79.272,51.416 Z M147.24,45.8 C148.008,42.44 153.672,35.432 155.64,35.432 C156.072,35.432 156.312,35.768 156.312,36.536 C156.312,40.184 148.296,45.32 147.24,45.8 Z M93.816,39.56 L94.152,39.56 C96.312,38.984 98.808,37.928 98.808,35.912 C98.808,35.72 98.76,35.528 98.712,35.288 C98.664,35.048 98.472,34.904 98.232,34.904 C97.08,34.904 94.296,37.832 93.816,39.56 Z M108.264,29.96 C109.368,28.856 112.2,21.032 112.2,17.24 C112.2,16.52 112.104,15.944 111.864,15.56 C109.752,16.232 108.408,27.752 108.264,29.96 Z M117.576,29.96 C118.68,28.856 121.512,21.032 121.512,17.24 C121.512,16.52 121.416,15.944 121.176,15.56 C119.064,16.232 117.72,27.752 117.576,29.96 Z M123.672,67.016 C124.296,67.016 125.016,66.776 125.88,66.344 C131.976,63.224 133.656,54.152 134.328,47.624 C133.416,48.296 125.832,54.392 122.808,59.288 C121.8,60.92 121.32,62.6 121.32,63.992 C121.32,65.72 122.136,67.016 123.672,67.016 Z M145.128,54.392 C144.6,54.392 144.408,53.96 144.456,53.48 C144.648,52.232 144.552,50.936 144.6,49.688 C143.976,49.448 143.736,49.208 143.736,48.872 C143.736,48.488 144.216,47.96 144.648,47.432 L144.792,16.856 C144.792,16.376 145.128,16.088 145.512,16.088 C145.992,16.088 146.472,16.472 146.472,17.144 C146.52,23.864 146.52,28.952 146.52,32.744 C146.52,40.28 146.472,42.632 146.472,42.632 C146.76,42.584 146.808,42.344 146.904,42.2 C150.552,35.912 153.624,33.752 155.592,33.752 C157.032,33.752 157.848,34.904 157.848,36.392 C157.848,37.112 157.656,37.928 157.272,38.696 C156.552,40.232 155.496,41.528 154.296,42.68 C151.656,45.176 148.488,46.856 146.424,48.392 C146.28,53.336 146.472,54.104 145.464,54.344 C145.368,54.392 145.224,54.392 145.128,54.392 Z M174.41311,37.4747572 C175.540053,34.993393 177.009486,33.08 178.344,33.08 C179.016,33.08 179.688,33.56 180.216,34.712 C180.504,34.472 180.744,33.8 181.032,33.464 C181.272,33.176 181.8,33.08 182.136,33.224 C182.472,33.368 182.568,33.608 182.568,33.944 C182.568,34.856 181.8,36.536 181.848,39.704 C181.848,40.76 182.136,42.68 183.144,42.68 C183.288,42.68 183.432,42.68 183.576,42.584 C186.174303,41.4816896 187.287326,38.7003672 188.318629,37.7356914 C188.292876,36.1833871 188.28,34.5047163 188.28,33.56 C188.28,33.176 188.568,32.84 189,32.84 C189.816636,32.84 189.93859,33.0136704 189.956803,38.2362611 C189.958925,38.2613351 189.96,38.2866003 189.96,38.312 C189.96,38.3264376 189.959035,38.3413578 189.957202,38.3566637 C189.96,39.2466562 189.96,40.2800729 189.96,41.48 C190.2,41.288 190.2,41.096 190.248,40.952 C190.728,38.6 191.736,35.624 193.08,33.704 C193.464,33.176 194.04,32.84 194.568,32.84 C195,32.84 195.432,33.08 195.72,33.656 C197.064,36.2 195.864,40.856 197.448,43.928 C197.784,44.552 198.168,44.84 198.648,44.84 C200.376,44.84 202.728,40.568 204.072,37.976 C204.312,37.544 204.648,37.4 204.984,37.4 C205.464,37.4 205.896,37.736 205.896,38.216 C205.896,38.312 205.848,38.456 205.8,38.6 C203.304,43.496 201.96,45.272 200.088,46.232 C199.704,46.424 199.272,46.52 198.84,46.52 C197.88,46.52 196.776,46.04 196.056,44.696 C194.424,41.528 195.288,37.016 194.52,35 C193.992,35.24 192.888,37.976 192.408,39.752 C191.928,41.672 191.4,44.936 190.872,45.8 C190.632,46.184 190.344,46.376 190.008,46.376 C189.576,46.376 189.096,45.992 188.856,45.272 C188.664,44.552 188.568,44.024 188.424,41.048 C188.415776,40.9534217 188.407904,40.8334794 188.400384,40.6920661 C188.329623,40.7794944 188.257595,40.866139 188.184,40.952 C186.744,42.824 184.68,44.6 183,44.6 C182.184,44.6 181.464,44.168 180.936,43.208 C180.12,41.672 180.168,39.752 180.12,39.272 C179.784,39.416 180.024,39.272 177.24,44.312 C176.712,45.224 175.944,46.52 175.224,47.288 C174.792,47.72 174.312,47.96 173.928,47.96 C173.4,47.96 172.968,47.624 172.824,47.096 C172.632,46.568 172.536,45.896 172.536,45.128 C172.536,44.0895226 172.700305,42.899188 172.985259,41.6800223 C169.81342,44.9803861 165.722696,48.392 161.976,48.392 C159.672,48.392 158.808,46.856 158.808,44.744 C158.808,41.192 161.352,36.152 164.28,34.184 C165.096,33.608 165.864,33.416 166.536,33.416 C168.024,33.416 168.984,34.52 168.744,35.432 L168.744,35.576 C168.984,36.968 166.92,39.704 164.088,40.664 C163.368,40.952 161.832,41.288 161.064,41.48 C160.584,42.728 160.344,43.784 160.344,44.552 C160.344,45.944 161.016,46.568 162.168,46.568 C163.608,46.568 165.72,45.512 168.072,43.64 C172.874153,39.7727798 173.499956,37.8620473 174.41311,37.4747572 Z M161.928,39.56 L162.264,39.56 C164.424,38.984 166.92,37.928 166.92,35.912 C166.92,35.72 166.872,35.528 166.824,35.288 C166.776,35.048 166.584,34.904 166.344,34.904 C165.192,34.904 162.408,37.832 161.928,39.56 Z M174.408,45.368 C175.128,44.552 179.256,36.632 179.4,36.296 C178.584,35.912 178.776,36.248 178.296,34.76 C176.424,35.288 174.168,42.392 174.168,44.696 C174.168,45.08 174.264,45.32 174.408,45.368 Z" id="Jellybean" fill="#4F81C7"></path>
    </g>
</svg>